<svg width="32" height="32" viewBox="0 0 32 32" fill="none" xmlns="http://www.w3.org/2000/svg">
<path d="M14.6665 22.6666H9.33317C7.48873 22.6666 5.91628 22.0164 4.61584 20.7159C3.31539 19.4155 2.66562 17.8435 2.6665 15.9999C2.6665 14.1555 3.31673 12.583 4.61717 11.2826C5.91762 9.98214 7.48962 9.33236 9.33317 9.33325H14.6665V11.9999H9.33317C8.22206 11.9999 7.27762 12.3888 6.49984 13.1666C5.72206 13.9444 5.33317 14.8888 5.33317 15.9999C5.33317 17.111 5.72206 18.0555 6.49984 18.8333C7.27762 19.611 8.22206 19.9999 9.33317 19.9999H14.6665V22.6666ZM10.6665 17.3333V14.6666H21.3332V17.3333H10.6665ZM29.3332 15.9999H26.6665C26.6665 14.8888 26.2776 13.9444 25.4998 13.1666C24.7221 12.3888 23.7776 11.9999 22.6665 11.9999H17.3332V9.33325H22.6665C24.511 9.33325 26.0834 9.98348 27.3838 11.2839C28.6843 12.5844 29.3341 14.1564 29.3332 15.9999ZM22.6665 26.6666V22.6666H18.6665V19.9999H22.6665V15.9999H25.3332V19.9999H29.3332V22.6666H25.3332V26.6666H22.6665Z" fill="white"/>
</svg>
